    <svg width="133" height="37" viewBox="0 0 154 47" fill="none" xmlns="http://www.w3.org/2000/svg">
    <path d="M15.5625 46.4375C10.4583 46.4375 6.72917 45.7708 4.375 44.4375C2.02083 43.1042 0.84375 41.4375 0.84375 39.4375C0.84375 37.5 1.52083 36.1354 2.875 35.3438C4.22917 34.5312 5.91667 34.125 7.9375 34.125C9 34.125 10.1146 34.375 11.2812 34.875C12.4688 35.3542 13.6042 35.9688 14.6875 36.7188C15.7708 37.4479 16.6875 38.2083 17.4375 39C18.4167 36.4792 19.7292 33.4583 21.375 29.9375C22.1667 28.25 23 26.5208 23.875 24.75C24.75 22.9583 25.625 21.1979 26.5 19.4688C27.375 17.7396 28.2292 16.0729 29.0625 14.4688C29.8958 12.8646 30.6667 11.3958 31.375 10.0625C32.7917 7.375 33.8542 5.41667 34.5625 4.1875C35.1875 2.91667 36.0208 1.96875 37.0625 1.34375C38.125 0.71875 39.1354 0.40625 40.0938 0.40625C40.7604 0.40625 41.3229 0.583333 41.7812 0.9375C42.2396 1.27083 42.4688 1.77083 42.4688 2.4375C42.4688 3 42.3333 3.5625 42.0625 4.125C40.1667 8.16667 38.375 11.9167 36.6875 15.375C35 18.8333 33.1979 22.3958 31.2812 26.0625C29.5729 29.3542 27.9271 32.3438 26.3438 35.0312C24.7812 37.6979 23.4271 39.7708 22.2812 41.25C24.0938 41.125 25.75 40.9583 27.25 40.75C28.75 40.5417 30.1979 40.3021 31.5938 40.0312C32.9479 39.7604 34.3542 39.4583 35.8125 39.125C37.2708 38.7917 38.7812 38.4688 40.3438 38.1562C40.5312 38.0729 40.7604 38.0312 41.0312 38.0312C41.6771 38.0312 42.1875 38.2917 42.5625 38.8125C42.9375 39.3125 43.125 39.8854 43.125 40.5312C43.125 41.1146 42.3229 41.75 40.7188 42.4375C39.1354 43.125 37.0104 43.7708 34.3438 44.375C31.8021 44.9583 28.8854 45.4479 25.5938 45.8438C22.3229 46.2396 18.9792 46.4375 15.5625 46.4375ZM14.4375 41.4688C13.7292 41.0729 12.9479 40.6354 12.0938 40.1562C11.2396 39.6771 10.4375 39.2604 9.6875 38.9062C8.9375 38.5521 8.34375 38.375 7.90625 38.375C7.15625 38.375 6.78125 38.5729 6.78125 38.9688C6.78125 39.6146 7.46875 40.1875 8.84375 40.6875C10.2188 41.1667 12.0833 41.4271 14.4375 41.4688ZM45.3125 46.2812C44.6042 46.2812 43.7604 46.0833 42.7812 45.6875C41.8021 45.2917 40.9375 44.6354 40.1875 43.7188C39.4583 42.8021 39.0938 41.5729 39.0938 40.0312C39.0938 38.7396 39.3854 37.125 39.9688 35.1875C40.5521 33.25 41.4688 31.3438 42.7188 29.4688C43.9688 27.5521 45.5625 25.9583 47.5 24.6875C49.4583 23.4167 51.7188 22.7812 54.2812 22.7812C55.1979 22.7812 56 22.8958 56.6875 23.125C57.375 23.3542 57.9583 23.6042 58.4375 23.875C58.7083 24.0417 58.9583 24.2188 59.1875 24.4062C59.4375 24.5729 59.6667 24.7604 59.875 24.9688L60.9688 24.4375C61.2812 24.2917 61.6042 24.1667 61.9375 24.0625C62.2917 23.9375 62.5938 23.875 62.8438 23.875C63.6354 23.875 64.2812 24.0938 64.7812 24.5312C65.2812 24.9688 65.5312 25.4479 65.5312 25.9688C65.5312 26.1354 65.5208 26.25 65.5 26.3125C65.3542 26.8958 65.0833 27.6979 64.6875 28.7188C64.3125 29.7396 63.9062 30.875 63.4688 32.125C63.0312 33.3333 62.6562 34.5 62.3438 35.625C62.0521 36.75 61.9062 37.6771 61.9062 38.4062C61.9062 39.0312 62.0104 39.5521 62.2188 39.9688C62.4271 40.3646 62.7812 40.5625 63.2812 40.5625C63.8854 40.5625 64.6979 40.2188 65.7188 39.5312C66.7396 38.8229 67.7917 37.9896 68.875 37.0312C69.4583 36.5104 70.0625 35.9583 70.6875 35.375C71.3125 34.7708 71.9479 34.1354 72.5938 33.4688C72.9271 33.1979 73.25 33.0625 73.5625 33.0625C73.9792 33.0625 74.3229 33.2708 74.5938 33.6875C74.8854 34.0833 75.0312 34.5312 75.0312 35.0312C75.0312 35.6146 74.8333 36.1042 74.4375 36.5C73.6042 37.2708 72.75 38.0938 71.875 38.9688C71 39.8438 69.7917 40.9167 68.25 42.1875C66.875 43.3125 65.4583 44.2812 64 45.0938C62.5417 45.8854 61.2292 46.2812 60.0625 46.2812C58.6042 46.2812 57.5417 45.7188 56.875 44.5938C56.2083 43.4479 55.875 42.2292 55.875 40.9375C55.875 40 56.0104 39.1667 56.2812 38.4375C55.4271 39.5833 54.4167 40.7708 53.25 42C52.0833 43.2083 50.8229 44.2292 49.4688 45.0625C48.1146 45.875 46.7292 46.2812 45.3125 46.2812ZM47.8125 40.7812C48.4792 40.7812 49.3125 40.3542 50.3125 39.5C51.3333 38.6458 52.3125 37.6458 53.25 36.5C54.2917 35.25 55.1146 34.1146 55.7188 33.0938C56.3229 32.0729 56.625 31.3854 56.625 31.0312C56.625 30.2396 56.1667 29.6146 55.25 29.1562C54.3333 28.6771 53.5104 28.4375 52.7812 28.4375C51.4896 28.4375 50.2604 28.8542 49.0938 29.6875C47.9479 30.5208 47.0104 31.5938 46.2812 32.9062C45.5521 34.1979 45.1875 35.5417 45.1875 36.9375C45.1875 37.75 45.3333 38.5938 45.625 39.4688C45.9375 40.3438 46.6667 40.7812 47.8125 40.7812ZM69.0625 46.2812C68.4583 46.2812 68.0208 46.1667 67.75 45.9375C67.4792 45.7292 67.3438 45.3229 67.3438 44.7188V44.4688L67.375 44.1875C67.4375 43.5417 67.7917 42.4479 68.4375 40.9062C69.0833 39.3438 69.8229 37.6771 70.6562 35.9062C71.5938 33.8854 72.4583 32.0417 73.25 30.375C74.0625 28.7083 74.7083 27.3854 75.1875 26.4062L85.0625 6.25C85.2917 5.75 85.75 5.28125 86.4375 4.84375C87.1458 4.38542 87.8854 4.15625 88.6562 4.15625C89.5938 4.15625 90.2396 4.33333 90.5938 4.6875C90.9688 5.04167 91.1562 5.46875 91.1562 5.96875C91.1562 6.42708 91.0417 6.90625 90.8125 7.40625C90.6042 7.90625 90.3542 8.375 90.0625 8.8125C88.25 12.0208 86.5208 15.4688 84.875 19.1562C83.2292 22.8229 81.4792 26.2708 79.625 29.5C80.6875 28.4167 81.8229 27.3646 83.0312 26.3438C84.2396 25.3021 85.5312 24.4479 86.9062 23.7812C88.3021 23.1146 89.7708 22.7812 91.3125 22.7812C92.2708 22.7812 93.2188 22.9271 94.1562 23.2188C95.0938 23.5104 95.875 23.9792 96.5 24.625C97.125 25.2708 97.4375 26.1354 97.4375 27.2188C97.4375 28.9896 96.9167 30.5417 95.875 31.875C94.8542 33.2083 93.5625 34.3542 92 35.3125C90.4583 36.2708 88.9062 37.0625 87.3438 37.6875C86.7812 37.9167 86.3021 38.2812 85.9062 38.7812C85.5104 39.2604 85.3125 39.6667 85.3125 40C85.3125 40.6042 85.6667 40.9062 86.375 40.9062C87.8125 40.9062 89.8333 40.2708 92.4375 39C93.7292 38.375 95.2083 37.5729 96.875 36.5938C98.5625 35.6146 100.5 34.4583 102.688 33.125C103.021 32.9167 103.354 32.8125 103.688 32.8125C104.542 32.8125 104.969 33.3438 104.969 34.4062C104.969 34.9896 104.75 35.6562 104.312 36.4062C103.896 37.1354 103.188 37.8333 102.188 38.5C100.333 39.625 98.4167 40.7917 96.4375 42C94.4583 43.2083 92.4062 44.2292 90.2812 45.0625C88.1562 45.875 85.9479 46.2812 83.6562 46.2812C80.6979 46.2812 79.2188 45 79.2188 42.4375C79.2188 41.0833 79.5 39.8958 80.0625 38.875C80.6458 37.8333 81.3542 36.9271 82.1875 36.1562C83.0417 35.3438 83.8854 34.6875 84.7188 34.1875C85.5521 33.6875 86.3333 33.1875 87.0625 32.6875C88.1042 32.0833 88.9792 31.4167 89.6875 30.6875C90.3958 29.9583 90.75 29.2396 90.75 28.5312C90.75 27.9271 90.4688 27.625 89.9062 27.625C87.8229 27.625 84.9062 29.6354 81.1562 33.6562C79.4062 35.5312 77.9792 37.25 76.875 38.8125C75.7917 40.3542 74.6354 41.9271 73.4062 43.5312C71.7812 45.3646 70.3333 46.2812 69.0625 46.2812ZM105.75 46.2812C104.917 46.2812 103.969 46.0521 102.906 45.5938C101.865 45.1562 100.958 44.4479 100.188 43.4688C99.4167 42.4896 99.0312 41.1979 99.0312 39.5938C99.0312 38.3021 99.3333 36.7188 99.9375 34.8438C100.562 32.9688 101.51 31.1146 102.781 29.2812C104.073 27.4271 105.729 25.8854 107.75 24.6562C109.771 23.4062 112.115 22.7812 114.781 22.7812C115.844 22.7812 116.969 22.9792 118.156 23.375C119.365 23.7708 120.396 24.4375 121.25 25.375C122.104 26.2917 122.531 27.5625 122.531 29.1875C122.531 30.5208 122.198 32.0729 121.531 33.8438C121.906 34.3021 122.438 34.5312 123.125 34.5312C123.771 34.5312 124.521 34.2708 125.375 33.75C126.229 33.2292 127.073 32.5938 127.906 31.8438C128.76 31.0938 129.531 30.3438 130.219 29.5938C130.927 28.8438 131.479 28.2396 131.875 27.7812C132.021 27.6354 132.198 27.5625 132.406 27.5625C132.865 27.5625 133.198 27.8542 133.406 28.4375C133.615 29.0208 133.573 29.7604 133.281 30.6562C132.99 31.5312 132.312 32.4375 131.25 33.375C130.625 34.0417 129.854 34.8646 128.938 35.8438C128.042 36.8021 127.062 37.6562 126 38.4062C124.958 39.1354 123.896 39.5 122.812 39.5C121.708 39.5 120.667 39.1458 119.688 38.4375C118.146 40.8542 116.188 42.7708 113.812 44.1875C111.438 45.5833 108.75 46.2812 105.75 46.2812ZM108.469 40.8125C109.781 40.8125 111.01 40.375 112.156 39.5C113.302 38.625 114.229 37.5208 114.938 36.1875C115.646 34.8542 116 33.4896 116 32.0938C116 31.5521 115.938 30.9896 115.812 30.4062C115.708 29.8021 115.458 29.3021 115.062 28.9062C114.667 28.4896 114.031 28.2812 113.156 28.2812C111.865 28.2812 110.646 28.6979 109.5 29.5312C108.354 30.3438 107.417 31.4062 106.688 32.7188C105.979 34.0104 105.625 35.3646 105.625 36.7812C105.625 37.3021 105.688 37.8854 105.812 38.5312C105.938 39.1562 106.198 39.6979 106.594 40.1562C107.01 40.5938 107.635 40.8125 108.469 40.8125ZM133.188 46.2812C131.521 46.2812 130.094 45.875 128.906 45.0625C127.74 44.2292 126.844 43.1458 126.219 41.8125C125.615 40.4583 125.312 39.0104 125.312 37.4688C125.312 36.1146 125.698 34.6042 126.469 32.9375C127.26 31.25 128.385 29.6354 129.844 28.0938C131.302 26.5521 133.042 25.2812 135.062 24.2812C137.104 23.2604 139.323 22.75 141.719 22.75C143.448 22.75 144.74 23.1667 145.594 24C146.448 24.8333 146.875 25.9896 146.875 27.4688C146.875 28.3438 146.646 29.2604 146.188 30.2188C145.729 31.1771 144.938 32.1458 143.812 33.125C142.688 34.125 141.177 35.1458 139.281 36.1875C137.406 37.2083 135.052 38.2396 132.219 39.2812C132.448 40.5729 133.49 41.2188 135.344 41.2188C136.781 41.2188 138.333 40.9271 140 40.3438C141.667 39.7396 143.271 39.0521 144.812 38.2812C146.354 37.5312 147.677 36.8229 148.781 36.1562C149.885 35.4896 150.542 35.1146 150.75 35.0312C150.938 34.9062 151.104 34.8333 151.25 34.8125C151.417 34.7917 151.562 34.7812 151.688 34.7812C152.188 34.7812 152.531 34.9792 152.719 35.375C152.927 35.75 153.031 36.0625 153.031 36.3125C153.031 36.5 153.01 36.7292 152.969 37C152.927 37.25 152.771 37.5417 152.5 37.875C152.229 38.1458 151.438 38.7396 150.125 39.6562C148.812 40.5729 147.406 41.4583 145.906 42.3125C144.073 43.3333 142.031 44.25 139.781 45.0625C137.531 45.875 135.333 46.2812 133.188 46.2812ZM131.75 35.6875C133.104 34.9792 134.479 34.1562 135.875 33.2188C137.292 32.2604 138.365 31.5625 139.094 31.125C140.073 30.5 140.719 29.9479 141.031 29.4688C141.385 28.9479 141.562 28.5104 141.562 28.1562C141.562 27.8438 141.458 27.5938 141.25 27.4062C141.062 27.2188 140.844 27.1042 140.594 27.0625L140.312 27.0312H140.031C138.885 27.0312 137.823 27.3646 136.844 28.0312C135.885 28.6771 135.073 29.4896 134.406 30.4688C133.698 31.4896 133.125 32.4479 132.688 33.3438C132.271 34.2396 131.958 35.0208 131.75 35.6875Z" fill="#2563EB"/>
    </svg>